<?xml version="1.0" encoding="utf-8"?>
<!-- Generator: Adobe Illustrator 22.0.1, SVG Export Plug-In . SVG Version: 6.00 Build 0)  -->
<svg version="1.1" id="Слой_1" xmlns="http://www.w3.org/2000/svg" xmlns:xlink="http://www.w3.org/1999/xlink" x="0px" y="0px"
	 viewBox="0 0 400 120" style="enable-background:new 0 0 400 120;" xml:space="preserve">
<path d="M134.1,110.6c1.1-2.9,2.2-5.9,3.4-9c-24.9,0-49.6,0-74.4,0c0-5.8,0-11.4,0-17.2c-4.2,2.2-8.2,4.4-12.3,6.6
	c-0.1-0.1-0.1-0.2-0.2-0.3c3.8-2.1,7.6-4.3,11.4-6.4c0.8-0.4,1.1-0.9,1.1-1.8c-0.1-4.3,0.1-8.6-0.1-12.8c-0.1-2.4-0.7-4.8-0.7-7.3
	c0-3.2,0.4-6.4,0.6-9.7c0.1-2.3,0.1-4.6,0.1-7c0-0.3-0.4-0.7-0.7-0.8c-6.3-3.7-12.7-7.3-19-11c-1.5-0.9-2.9-1.7-4.4-2.6
	c0.1-0.1,0.1-0.2,0.2-0.3C47,35.5,54.9,40,63,44.7c0-8.4,0-16.7,0-25.1c0.6,0,1-0.1,1.4-0.1c10.1,0,20.2,0,30.2-0.1
	c2.4,0,4.7-0.3,7.1-0.3s4.8,0.2,7.2,0.2c9.4,0,18.7,0,28.1,0c10.6,0,21.1,0,31.7,0c1,0,1.4-0.3,1.7-1.2c1.2-3,2.4-6,3.7-9
	c0.5-1.1,0.6-2,0.1-3.1c-0.3-0.6-0.5-1.3-0.5-2.1c0.7,1.7,1.5,3.4,2.3,5.1c0.9-0.7,0.4-1.9,1.2-2.7c0.7-0.7,0.9-2,1.6-2.9
	c-0.4,1.2-0.9,2.4-1.3,3.7c-0.1,0.5-0.1,1.2,0,1.7c1.2,3.1,2.5,6.2,3.7,9.4c0.3,0.8,0.7,1,1.5,1c9.3,0,18.6,0,27.8,0
	c9,0,18.1-0.1,27.1-0.1c16.7,0,33.4,0,50,0c24,0,47.9,0.1,71.9,0.1c0.9,0,1.8,0.1,2.6,0.3c-5,0.1-10,0.2-15.2,0.4
	c0.4,0.2,0.7,0.3,1,0.4c3.6,1.3,6.1,3.9,7.6,7.4c0.7,1.5,1,3,0.9,4.6c-0.1,2.2,0,4.3,0,6.5c0,0.8,0.3,1,1,1c1.6,0,3.3,0,4.9,0
	c0,0.1,0,0.2,0,0.4c-1.9,0-3.8,0-5.8,0c0,5.3,0,10.5,0,15.7c0.6,0,1.2,0.1,1.8,0.1v0.1c-23.1,0-46.2,0-69.4,0c0,14.8,0,29.7,0,44.7
	c23.6,0,47.3,0,71,0c0,0.2,0,0.4,0,0.5c-48.6,0-97.1,0-145.9,0c1.9,5.1,3.8,10,5.6,14.8c-0.1,0-0.2,0.1-0.3,0.1
	c-1.1-2.7-2.3-5.5-3.4-8.2c-0.8-1.9-1.5-3.9-2.3-5.8c-0.2-0.4-0.7-0.8-1.1-0.8c-9.6,0-19.2,0-28.8-0.1c-4.6,0-9.1-0.1-13.7-0.1
	c-10.1,0-20.1,0.1-30.2,0.2c-0.3,0-0.6,0-0.8-0.1c-0.8-0.1-1.2,0.2-1.5,1c-1,2.7-2.2,5.3-3.2,8C134.3,110.6,134.2,110.6,134.1,110.6
	z M210.7,99.5c-0.2-0.6-0.4-1-0.5-1.3c-3.4-8.6-6.8-17.2-10.2-25.8c-4.1-10.3-8.1-20.5-12.1-30.8c-0.3-0.9-0.8-1.1-1.6-1.1
	c-6.7,0-13.4,0-20,0c-0.4,0-0.8,0-1.2-0.1c0-0.1,0-0.2,0-0.3c7.3,0,14.7,0,22.1,0c0-0.3,0-0.5-0.1-0.6c-2.3-5.8-4.5-11.5-6.8-17.2
	c-0.1-0.3-0.7-0.7-1.1-0.7c-2-0.1-4.1,0-6.1,0c-0.9,0-1.2,0.3-1.5,1.1c-2.4,6.2-4.9,12.5-7.4,18.7c-3,7.5-6,15.1-9,22.6
	c-4.3,10.8-8.6,21.6-12.9,32.4c-0.4,1.1-0.8,2.1-1.3,3.3c0.3,0.1,0.5,0.1,0.6,0.1c8.3,0,16.6,0,25,0c0.4,0,0.9-0.4,1.1-0.8
	c1-2.5,2-5.1,2.9-7.6c0.3-0.8,0.6-1.1,1.5-1.1c2.4,0.1,4.9,0.1,7.3,0c0.9,0,1.3,0.4,1.5,1.1c1,2.4,2,4.8,2.9,7.2
	c0.3,0.8,0.7,1.1,1.6,1.1c7.9,0,15.8,0,23.6,0C209.5,99.5,210,99.5,210.7,99.5z M278.2,40.6c-0.2-0.1-0.3-0.1-0.4-0.1
	c-6.8,0-13.6-0.1-20.4,0c-0.4,0-1,0.5-1.1,0.9c-1,2.4-2,4.8-2.9,7.2c-0.4,1-0.9,2-1.3,3.1c-0.4-0.8-0.8-1.5-1.1-2.1
	c-1.1-2.6-2.3-5.3-3.4-7.9c-0.3-0.9-0.8-1.2-1.8-1.2c-6.4,0-12.7,0-19.1,0c-0.5,0-1,0.1-1.6,0.1c0.2,0.4,0.2,0.7,0.4,0.9
	c4,8.5,8,17.1,11.9,25.6c0.9,2,1.9,4.1,2.9,6.1c0.1,0.2,0.5,0.4,0.7,0.5c0.2,0.7,0.5,1.4,0.6,2.2c0.1,0.5,0.2,1,0.1,1.4
	c-1.9,4.7-3.8,9.4-5.7,14.1c-1.1,2.7-2.2,5.4-3.3,8.2c0.3,0.1,0.4,0.1,0.5,0.1c7,0,14.1,0,21.1,0c0.8,0,1-0.4,1.2-1
	c1-2.6,2-5.1,3-7.7c4.5-11.3,9-22.6,13.4-33.9c0.1-0.2,0.1-0.5,0.2-0.8c-2.1,0-4.2,0-6.2,0c1.8-0.1,3.7-0.1,5.5-0.1
	c0.7,0,1-0.2,1.2-0.9c0.4-1.1,0.9-2.2,1.3-3.4C275.2,48.2,276.7,44.4,278.2,40.6z M122.9,52.2c-0.4-0.9-0.7-1.6-1-2.3
	c-2.6-5-6.6-8.5-11.9-10.4c-5.5-2-11-1.8-16.4,0.8c-6.2,2.9-10,7.7-11.9,14.2c-0.2,0.6-0.1,1,0.5,1.4c4.9,2.8,9.8,5.7,14.8,8.4
	c0.4,0.2,1.1,0.2,1.5,0c3.6-1.9,7.1-3.8,10.6-5.8c1.7-0.9,3.5-1.9,5.2-2.8c0,0.1,0.1,0.2,0.1,0.3c-5.3,3-10.7,5.9-16.2,9
	c0.5,0.3,0.9,0.5,1.2,0.7c5.6,3.2,11.1,6.4,16.7,9.6c0.7,0.4,1.3,1.3,2.3,0.5c0.1-0.1,0.4,0.1,0.6,0.3c3.9,2.3,7.8,4.5,11.7,6.8
	c1.4,0.8,2.9,1.7,4.4,2.6c-5.8,7.7-13.3,12.8-22.7,15.4c8.7,0,17,0,25.5,0c0-19,0-37.8,0-57C132.8,46.6,127.9,49.4,122.9,52.2z
	 M138.7,97.9c0.1,0,0.2,0,0.2,0c7.5-19.1,15.1-38.3,22.7-57.6c-6.1,0-11.9,0-17.7,0c0-0.1,0-0.2,0-0.3c0.4,0,0.8,0,1.3,0
	c5.2,0,10.4,0,15.6,0c0.8,0,1.1-0.2,1.4-0.9c1.4-3.7,2.9-7.4,4.4-11.1c1-2.6,2.1-5.2,3.1-7.8c-10.4,0-20.6,0-30.9,0
	c0,0.3-0.1,0.5-0.1,0.7c0,6.2,0,12.4,0,18.6c0,1,0.3,1.9,0.4,2.9c0,0.3,0.1,0.5,0.1,0.8c-0.1,0.6-0.5,1.1-0.5,1.7
	c0,11.6,0,23.1,0,34.7C138.7,85.6,138.7,91.7,138.7,97.9z M213.8,40.4c0,20.2,0,40.3,0,60.4c5.1,0,10.1,0,15.1,0
	c0.3,0,0.7-0.5,0.9-0.9c3.1-7.5,6.2-15,9.3-22.5c0.2-0.5,0.2-1.3-0.1-1.9c-3-6.5-6.2-13-9.2-19.5c-2.3-4.9-4.5-9.9-6.8-14.8
	c-0.2-0.4-0.6-0.8-1-0.9C219.3,40.4,216.6,40.4,213.8,40.4z M136.5,42.1c-0.2-0.4-0.3-0.8-0.5-1.1c-1.1-1.7-2.2-3.5-3.5-5.1
	c-10.7-14.1-31-18.7-46.9-10.5C77,29.8,71,36.6,67.2,45.6c-0.4,1-0.3,1.5,0.7,2c0.9,0.4,1.8,1,2.7,1.5c2.8,1.6,5.5,3.2,8.4,4.8
	c3.4-10.2,10-16.8,20.9-18s18.8,3.9,24.2,13.2C128.2,46.8,132.3,44.5,136.5,42.1z M288.1,100.8c0-14.9,0-29.7,0-44.6
	c-0.4,0-0.7-0.1-1-0.1c-3.8,0-7.6,0-11.4-0.1c-0.9,0-1.4,0.3-1.8,1.2c-5.6,14.2-11.1,28.4-16.7,42.6c-0.1,0.3-0.2,0.6-0.3,0.9
	C267.3,100.8,277.7,100.8,288.1,100.8z M131.9,86c-0.5-0.4-0.9-0.6-1.2-0.8c-3.6-2.1-7.1-4.1-10.7-6.2c-1-0.6-1.6-0.6-2.6,0.2
	c-9.6,8.1-23.1,7.6-32-1.4c-1.2-1.2-2.3-2.6-3.5-4c-4,2.2-8.1,4.5-12.3,6.8c7,11.2,16.9,17.9,30,18.9
	C112.6,100.6,123.2,95.8,131.9,86z M212.8,98.3c0.1,0,0.1,0,0.2,0c0-19.3,0-38.5,0-57.9c-7.7,0-15.2,0-23,0
	C197.6,59.8,205.2,79.1,212.8,98.3z M213,20.1c-10.4,0-20.6,0-31,0c0.1,0.3,0.1,0.5,0.2,0.8c2.4,6.1,4.8,12.2,7.2,18.3
	c0.3,0.8,0.7,0.9,1.4,0.9c7,0,13.9,0,20.9,0c0.4,0,0.8,0,1.2-0.1C213,33.3,213,26.8,213,20.1z M246.6,39.9c-0.1-0.4-0.2-0.7-0.3-0.9
	c-2.5-5.6-5-11.1-7.4-16.7c-0.3-0.7-0.8-0.8-1.5-0.8c-6.8,0-13.7,0-20.5,0c-0.2,0-0.4,0.1-0.8,0.1c0.2,0.4,0.3,0.7,0.4,1.1
	c2.5,5.4,5.1,10.8,7.5,16.2c0.4,1,1,1.3,2,1.3c6.6,0,13.2,0,19.8-0.1C246.1,40,246.3,39.9,246.6,39.9z M285.7,21.5
	c-0.3,0-0.5-0.1-0.7-0.1c-6.6,0-13.2,0-19.8,0c-0.8,0-1,0.4-1.2,1c-1.9,4.5-3.7,9.1-5.6,13.6c-0.5,1.2-1,2.5-1.5,3.8
	c0.4,0,0.6,0.1,0.8,0.1c6.6,0,13.3,0,19.9,0c0.7,0,1-0.3,1.2-0.9c1.1-2.8,2.2-5.6,3.3-8.5C283.3,27.6,284.5,24.6,285.7,21.5z
	 M66.5,47.3c-3.6,11.5-2.8,22.3,2.9,32.8c4.2-2.3,8.3-4.6,12.3-6.8c-0.1-0.3-0.1-0.4-0.2-0.5c-3.1-5.5-4.1-11.4-2.9-17.7
	c0.1-0.3-0.3-0.9-0.6-1.1c-2.1-1.3-4.2-2.5-6.3-3.7C70.1,49.4,68.4,48.4,66.5,47.3z M117.1,76.6c-0.2-0.1-0.2-0.2-0.3-0.3
	c-6.2-3.6-12.4-7.1-18.6-10.7c-0.3-0.2-1-0.1-1.4,0.1c-2.6,1.4-5.1,2.8-7.7,4.2c-1.5,0.8-3,1.7-4.5,2.5C92,84.2,108.6,85,117.1,76.6
	z M64.9,45.7c2.5-6.4,6.2-11.9,11.3-16.4c5.1-4.5,10.9-7.5,17.5-9.2c-10,0-20,0-30,0c0,0.4-0.1,0.7-0.1,1c0,7.7,0,15.3,0,23
	C63.5,45.1,64.1,45.4,64.9,45.7z M262.6,20c-7.3,0-14.4,0-21.5,0c-0.2,0-0.4,0-0.6,0.1c0,0.2,0.1,0.4,0.1,0.5
	c2.7,6.2,5.5,12.4,8.3,18.6c0.2,0.3,0.7,0.7,1.1,0.7c1.2,0.1,2.3,0,3.5,0.1c0.8,0.1,1.1-0.2,1.4-0.9c1.7-4.2,3.4-8.4,5.2-12.6
	C260.8,24.3,261.7,22.3,262.6,20z M338.3,39.8c0-2.5-0.1-4.8,0-7.1c0-1.1,0.3-2.2,0.7-3.2c0.7-1.8,2.2-2.7,4.1-2.8
	c2.1-0.1,3.8,0.7,4.6,2.7c0.5,1.1,0.7,2.4,0.8,3.6c0.1,2.3,0,4.5,0,6.9c2.3,0,4.5,0,6.7,0c0-3.1,0.1-6.2,0-9.3c-0.1-2.1-1-4-2.4-5.6
	c-3.3-3.8-7.6-5-12.4-3.8s-8,4.3-8.6,9.3c-0.4,3-0.2,6.1-0.2,9.2c0,0.1,0.1,0.1,0.2,0.2C333.9,39.8,336,39.8,338.3,39.8z M67.9,81.6
	c-1.2,0.7-2.3,1.3-3.5,1.9c-0.7,0.3-0.9,0.8-0.9,1.5c0,4.9,0,9.8,0,14.6c0,0.4,0,0.8,0.1,1.1c9.9,0,19.7,0,29.5,0
	C82.2,97.8,73.8,91.4,67.9,81.6z M318.7,32.3c1.2-1.1,2.2-2,3.3-2.9c3.2-2.7,3.2-2.6,3.1-6.8v-0.1c0.1-0.7-0.2-1-1-1
	c-6,0-12.1,0-18.1,0c-0.7,0-1,0.2-1,1c0,1.2,0.1,2.5,0,3.7c-0.1,0.9,0.2,1.3,1.2,1.2c3-0.1,6,0,9,0c0.3,0,0.7,0,1.3,0.1
	c-0.6,0.5-1,0.9-1.4,1.2c-2.1,1.8-4.3,3.5-6.3,5.3c-0.3,0.2-0.5,0.9-0.4,1.1c0.7,1.2,1.5,2.3,2.2,3.5c0.7-0.3,1.3-0.5,1.9-0.7
	c2.5-0.7,4.9-0.8,6.6,1.7c0.1,0.2,0.4,0.3,0.6,0.3c2.3,0,4.5,0,6.9,0C325.3,35.8,322.4,33.7,318.7,32.3z M301.3,19.8
	c-4,0-7.9,0-11.8,0c-0.8,0-0.6,0.7-0.6,1.2c0,5.8,0,11.7,0,17.5c0,0.5,0,0.9,0.1,1.4c4.2,0,8.3,0,12.4,0
	C301.3,33.2,301.3,26.6,301.3,19.8z M306.4,34.4c2.3-1.9,4.6-3.9,6.9-5.8c0-0.1-0.1-0.2-0.1-0.3c-3.1,0-6.2,0-9.3,0
	c0-2.7,0-5.3,0-7.9c7.5,0,14.9,0,22.5,0c0,1.9,0.1,3.7,0,5.5c0,0.6-0.3,1.2-0.7,1.6c-1.5,1.4-3.1,2.8-4.4,4c1.5,1.2,3.1,2.2,4.2,3.5
	c1.2,1.4,1.9,3.1,2.8,4.6c0.7,0,1.4,0,2.3,0c0-2.7-0.1-5.2,0-7.8c0.1-3.3,1.4-6.2,3.8-8.5c1.6-1.6,3.5-2.6,6-3.4
	c-13,0-25.7,0-38.4,0c0,6.6,0,13.2,0,19.7c2.7,0,5.4,0,8.1,0C308.7,38,307.6,36.2,306.4,34.4z M348.7,40.5c-0.1,1.6-0.1,3-0.4,4.4
	c-0.4,1.8-1.3,3.3-3.2,3.8c-3.7,1-6.6-1.3-6.8-5.2c0-1,0-2,0-3.1c-1.9,0-3.7,0-5.4,0c-0.4,0-0.8,0-1.2,0c-0.9,5.2,1.2,10.2,5.3,12.7
	c4.2,2.5,10.2,2.2,13.9-0.7c3.8-3,5-7.5,4.2-12C353.1,40.5,350.9,40.5,348.7,40.5z M288.9,40.5c0,5.2,0,10.3,0,15.4
	c4.2,0,8.3,0,12.3,0c0-5.2,0-10.3,0-15.4C297.1,40.5,293.1,40.5,288.9,40.5z M303,45.2c0.1,0.7,0.2,1.2,0.3,1.7
	c0.7,3.2,2.2,5.6,5.3,6.9c2.9,1.2,6,1.3,9.1,0.8c1.8-0.3,3.8-1,5.3-2c3.9-2.6,4.5-7.8,3.7-11.6c0-0.2-0.4-0.5-0.6-0.5
	c-2.1,0-4.2,0-6.3,0c0.1,1.4,0.3,2.6,0.3,3.9c0,2.4-1.9,4.4-4.3,4.7c-3.1,0.4-5.5-1.1-5.9-3.2c0-0.3-0.4-0.6-0.6-0.6
	C307.2,45.2,305.2,45.2,303,45.2z M137.9,20.1c-8.7,0-17.3,0-25.9,0c11.3,3,19.8,9.7,25.9,19.8C137.9,33.1,137.9,26.7,137.9,20.1z
	 M288.1,40.4c-2.2,0-4.2,0-6.3,0c-0.9,0-1.3,0.2-1.7,1.1c-1.8,4.6-3.6,9.2-5.4,13.8c-0.1,0.2-0.1,0.4-0.2,0.7c4.5,0,9,0,13.5,0
	C288.1,50.8,288.1,45.7,288.1,40.4z M97.1,64.9c-5.4-3.1-10.5-6-15.8-9.1c-1,5.7-0.1,10.8,2.7,15.6c0.1,0.2,0.7,0.3,0.9,0.2
	c1-0.5,1.9-1,2.8-1.5C90.8,68.4,93.8,66.7,97.1,64.9z M341.6,56c-6.9-1-11.6-7-11.2-13.4c0-0.7,0-1.4,0-2.1c-0.9,0-1.6,0-2.4,0
	c0.5,3.7,0.4,7.2-1.8,10.3c-2.2,3.1-5.4,4.5-9,5.1C325.3,56,333.5,56,341.6,56z M347.2,39.9c0-3,0.2-6-0.1-8.9
	c-0.2-2.2-1.6-3.2-3.6-3.2s-3.6,1.1-3.8,3.2c-0.3,2.7-0.2,5.4-0.3,8.1c0,0.3,0.1,0.5,0.1,0.8C342.2,39.9,344.7,39.9,347.2,39.9z
	 M310.9,44c0.1,0.4,0.2,0.6,0.2,0.9c0.1,1.6,0.9,2.6,2.5,2.9c1.7,0.4,3.3,0.2,4.4-1.2c1.1-1.5,0.9-3.2,0.6-4.9
	c-0.2-0.9-0.6-1.2-1.5-1.2c-4.7,0-9.5,0-14.2,0c-0.4,0-0.8,0-1.2,0.1c0,1.2,0,2.3,0,3.5C304.8,44,307.8,44,310.9,44z M182.4,100.8
	c-0.8-1.9-1.4-3.6-2.1-5.3c-0.4-1.1-0.6-2.5-1.4-3.1c-0.9-0.6-2.3-0.2-3.5-0.2c-2.9,0-2.9,0-3.9,2.7c-0.7,2-1.5,3.9-2.2,5.9
	C173.6,100.8,177.9,100.8,182.4,100.8z M214,22.3c-0.1,0-0.2,0-0.3,0c0,5.7,0,11.3,0,17c0,0.2,0.6,0.7,0.9,0.7c1.8,0.1,3.7,0,5.5,0
	c0.6,0,1.2-0.1,2-0.1C219.5,33.9,216.7,28.1,214,22.3z M288.1,21.9c-0.1,0-0.1-0.1-0.2-0.1c-2.4,6-4.7,12-7.1,18c2.5,0,4.9,0,7.3,0
	C288.1,33.8,288.1,27.8,288.1,21.9z M347.7,40.5c-3,0-5.5,0-8.4,0c0.3,1.9,0.4,3.6,0.8,5.3c0.4,1.5,1.8,2.2,3.5,2.2
	c1.8-0.1,3-0.7,3.4-2.3C347.3,44,347.4,42.3,347.7,40.5z M356.4,46.6c-2,5.2-5.6,8.3-11.1,9.4c3.5,0.1,6.9,0.1,10.4,0
	c0.2,0,0.7-0.5,0.7-0.7C356.4,52.4,356.4,49.5,356.4,46.6z M311.9,55.9c-1.3-0.4-3-0.9-4.7-1.7s-3-2.2-3.8-4
	c-0.7-1.6-1.2-3.3-1.7-4.5c0,3.1,0,6.6,0,10.2C305.3,55.9,308.8,55.9,311.9,55.9z M176,11c-1.1,2.9-2.1,5.5-3.1,8.1
	c2.2,0,4.2,0,6.3,0C178.1,16.4,177.1,13.8,176,11z M63.7,72.1c0,3.6,0,7.3,0,11.2c1.4-0.8,2.7-1.5,3.8-2.1
	C66.1,78.1,64.9,75,63.7,72.1z M170.6,19.1c0.9,0.2,1.5,0.1,1.8-0.8c0.9-2.4,1.9-4.8,2.9-7.2c0.4-1,0.1-1.8-0.6-2.8
	C173.3,12,172,15.5,170.6,19.1z M251.9,46.1c0.8-2.1,1.6-3.8,2.3-5.6c-1.7,0-3.1,0-4.8,0C250.2,42.3,251,44,251.9,46.1z M177,8.9
	c-0.1,0-0.3,0-0.4,0.1c-0.1,0.6-0.3,1.2-0.1,1.7c1,2.6,2,5.3,3.1,7.9c0.1,0.3,0.6,0.5,1,0.8c0.1-0.1,0.2-0.2,0.3-0.3
	C179.6,15.7,178.3,12.3,177,8.9z M317.8,39.8c-1.5-1.8-4.8-1.5-6.7,0C313.3,39.8,315.5,39.8,317.8,39.8z M63.6,49.3
	c1.2-2.5,1.2-3.1,0-3.3C63.6,47,63.6,48,63.6,49.3z"/>
<path d="M290.3,90.9c20.1,0,40.2,0,60.3,0c0,0,0,0,0,0.1C330.6,91,310.5,91,290.3,90.9L290.3,90.9z"/>
<path d="M356.4,28.6c0-2.6,0-5.2,0-7.7c0,0,0,0,0.1,0C356.5,23.4,356.5,26,356.4,28.6L356.4,28.6z"/>
<path d="M175.9,63.9c1.6,4.4,3.1,8.8,4.8,13.4c-3.4,0-6.6,0-10.1,0c1.7-4.5,3.3-8.9,5-13.3C175.7,63.9,175.8,63.9,175.9,63.9z
	 M175.7,69.8c-0.7,1.9-1.3,3.6-2,5.3c1.3,0,2.5,0,3.8,0C176.9,73.4,176.4,71.7,175.7,69.8z"/>
<path d="M139.3,40.1c1.2-0.1,2.4-0.1,3.6-0.2c0,0.1,0,0.2,0,0.3C141.7,40.2,140.5,40.2,139.3,40.1C139.3,40.2,139.3,40.2,139.3,40.1
	z"/>
<path d="M134.4,40.3c-2.3,0-4.6,0-6.9,0c0,0,0,0,0-0.1C129.8,40.2,132.1,40.2,134.4,40.3C134.4,40.2,134.4,40.3,134.4,40.3z"/>
<path d="M261.6,90.9c8.6,0,17.2,0,25.8,0l0,0C278.8,90.9,270.2,90.9,261.6,90.9L261.6,90.9z"/>
</svg>
